<svg width="24" height="24" viewBox="0 0 24 24" fill="none" xmlns="http://www.w3.org/2000/svg">
<path d="M21.2011 3.49365H2.79891C1.25288 3.49365 0 4.74653 0 6.29214V17.7075C0 19.2531 1.25288 20.506 2.79891 20.506H21.2011C22.7467 20.506 24 19.2531 24 17.7075V6.29214C24 4.74653 22.7467 3.49365 21.2011 3.49365ZM22.6636 18.4615L22.1308 19.0924L14.6699 13.0033L13.5144 14.1027C12.6581 14.8891 11.342 14.8891 10.4856 14.1027L9.33014 13.0033L1.86919 19.0924L1.33641 18.4615L8.34141 12.0623L1.29052 5.43582L1.70738 4.8835L12 12.6823L22.2926 4.8835L22.7091 5.43582L15.6586 12.0623L22.6636 18.4615Z" fill="#262626"/>
</svg>
